HIERARCHY
ROOT Hips
{
	OFFSET 0.000000 100.481300 0.000000
	CHANNELS 6 Xposition Yposition Zposition Xrotation Yrotation Zrotation 
	JOINT Spine
	{
		OFFSET -0.279200 12.230698 -2.892100
		CHANNELS 3 Xrotation Yrotation Zrotation
		JOINT Spine1
		{
			OFFSET -0.232667 10.192268 -1.242267
			CHANNELS 3 Xrotation Yrotation Zrotation
			JOINT Spine1_split
			{
				OFFSET -0.232667 10.192268 -1.242267
				CHANNELS 3 Xrotation Yrotation Zrotation
				JOINT Spine2
				{
					OFFSET -0.232667 10.192268 -1.242267
					CHANNELS 3 Xrotation Yrotation Zrotation
					JOINT Neck
					{
						OFFSET -0.418800 17.814194 8.416900
						CHANNELS 3 Xrotation Yrotation Zrotation
						JOINT Head
						{
							OFFSET 0.000000 7.031097 3.806800
							CHANNELS 3 Xrotation Yrotation Zrotation
							JOINT HeadTop_End
							{
								OFFSET 0.000000 24.646606 12.978600
								CHANNELS 3 Xrotation Yrotation Zrotation
								End Site
								{
									OFFSET 0.000000 0.000000 0.000000
								}
							}
						}
					}
					JOINT LeftShoulder
					{
						OFFSET 8.476499 7.247704 -3.868750
						CHANNELS 3 Xrotation Yrotation Zrotation
						JOINT LeftShoulder_split
						{
							OFFSET 8.476499 7.247704 -3.868750
							CHANNELS 3 Xrotation Yrotation Zrotation
							JOINT LeftArm
							{
								OFFSET 9.308998 -2.777710 0.208600
								CHANNELS 3 Xrotation Yrotation Zrotation
								JOINT LeftForeArm
								{
									OFFSET 29.972298 0.000000 0.000000
									CHANNELS 3 Xrotation Yrotation Zrotation
									JOINT LeftHand
									{
										OFFSET 26.026505 0.000000 0.000000
										CHANNELS 3 Xrotation Yrotation Zrotation
										JOINT LeftHandThumb1
										{
											OFFSET 12.240501 -7.147949 9.207150
											CHANNELS 3 Xrotation Yrotation Zrotation
											JOINT LeftHandThumb2
											{
												OFFSET 4.138618 -2.389435 2.389433
												CHANNELS 3 Xrotation Yrotation Zrotation
												JOINT LeftHandThumb3
												{
													OFFSET 2.726913 -1.574387 1.574386
													CHANNELS 3 Xrotation Yrotation Zrotation
													JOINT LeftHandThumb4
													{
														OFFSET 3.941010 -2.275345 2.275342
														CHANNELS 3 Xrotation Yrotation Zrotation
														End Site
														{
															OFFSET 0.000000 0.000000 0.000000
														}
													}
												}
											}
										}
										JOINT LeftHandIndex1
										{
											OFFSET 24.424698 -1.985611 5.953459
											CHANNELS 3 Xrotation Yrotation Zrotation
											JOINT LeftHandIndex2
											{
												OFFSET 6.426697 0.000000 0.000000
												CHANNELS 3 Xrotation Yrotation Zrotation
												JOINT LeftHandIndex3
												{
													OFFSET 5.337898 0.000000 0.000000
													CHANNELS 3 Xrotation Yrotation Zrotation
													JOINT LeftHandIndex4
													{
														OFFSET 4.409401 0.000000 0.000000
														CHANNELS 3 Xrotation Yrotation Zrotation
														End Site
														{
															OFFSET 0.000000 0.000000 0.000000
														}
													}
												}
											}
										}
										JOINT LeftHandMiddle1
										{
											OFFSET 23.810104 0.000000 0.000000
											CHANNELS 3 Xrotation Yrotation Zrotation
											JOINT LeftHandMiddle2
											{
												OFFSET 7.176498 0.000000 0.000000
												CHANNELS 3 Xrotation Yrotation Zrotation
												JOINT LeftHandMiddle3
												{
													OFFSET 6.774902 0.000000 0.000000
													CHANNELS 3 Xrotation Yrotation Zrotation
													JOINT LeftHandMiddle4
													{
														OFFSET 5.403328 0.000000 0.000000
														CHANNELS 3 Xrotation Yrotation Zrotation
														End Site
														{
															OFFSET 0.000000 0.000000 0.000000
														}
													}
												}
											}
										}
										JOINT LeftHandRing1
										{
											OFFSET 22.908401 -0.839279 -6.020567
											CHANNELS 3 Xrotation Yrotation Zrotation
											JOINT LeftHandRing2
											{
												OFFSET 6.337502 0.000000 0.000000
												CHANNELS 3 Xrotation Yrotation Zrotation
												JOINT LeftHandRing3
												{
													OFFSET 5.779297 0.000000 0.000000
													CHANNELS 3 Xrotation Yrotation Zrotation
													JOINT LeftHandRing4
													{
														OFFSET 4.965698 0.000000 0.000000
														CHANNELS 3 Xrotation Yrotation Zrotation
														End Site
														{
															OFFSET 0.000000 0.000000 0.000000
														}
													}
												}
											}
										}
										JOINT LeftHandPinky1
										{
											OFFSET 20.037003 -1.530319 -10.950146
											CHANNELS 3 Xrotation Yrotation Zrotation
											JOINT LeftHandPinky2
											{
												OFFSET 5.254700 0.000000 0.000000
												CHANNELS 3 Xrotation Yrotation Zrotation
												JOINT LeftHandPinky3
												{
													OFFSET 4.810204 0.000000 0.000000
													CHANNELS 3 Xrotation Yrotation Zrotation
													JOINT LeftHandPinky4
													{
														OFFSET 3.647202 0.000000 0.000000
														CHANNELS 3 Xrotation Yrotation Zrotation
														End Site
														{
															OFFSET 0.000000 0.000000 0.000000
														}
													}
												}
											}
										}
									}
								}
							}
						}
					}
					JOINT RightShoulder
					{
						OFFSET -7.570500 7.247704 -3.868750
						CHANNELS 3 Xrotation Yrotation Zrotation
						JOINT RightShoulder_split
						{
							OFFSET -7.570500 7.247704 -3.868750
							CHANNELS 3 Xrotation Yrotation Zrotation
							JOINT RightArm
							{
								OFFSET -9.308998 -2.777710 0.208500
								CHANNELS 3 Xrotation Yrotation Zrotation
								JOINT RightForeArm
								{
									OFFSET -29.972300 0.000000 0.000000
									CHANNELS 3 Xrotation Yrotation Zrotation
									JOINT RightHand
									{
										OFFSET -26.026505 0.000000 0.000000
										CHANNELS 3 Xrotation Yrotation Zrotation
										JOINT RightHandThumb1
										{
											OFFSET -12.240601 -7.148026 9.207092
											CHANNELS 3 Xrotation Yrotation Zrotation
											JOINT RightHandThumb2
											{
												OFFSET -4.138618 -2.389435 2.389433
												CHANNELS 3 Xrotation Yrotation Zrotation
												JOINT RightHandThumb3
												{
													OFFSET -2.726974 -1.574417 1.574421
													CHANNELS 3 Xrotation Yrotation Zrotation
													JOINT RightHandThumb4
													{
														OFFSET -3.941010 -2.275345 2.275343
														CHANNELS 3 Xrotation Yrotation Zrotation
														End Site
														{
															OFFSET 0.000000 0.000000 0.000000
														}
													}
												}
											}
										}
										JOINT RightHandIndex1
										{
											OFFSET -24.424698 -1.985657 5.953444
											CHANNELS 3 Xrotation Yrotation Zrotation
											JOINT RightHandIndex2
											{
												OFFSET -6.426697 0.000000 0.000000
												CHANNELS 3 Xrotation Yrotation Zrotation
												JOINT RightHandIndex3
												{
													OFFSET -5.337898 0.000000 0.000000
													CHANNELS 3 Xrotation Yrotation Zrotation
													JOINT RightHandIndex4
													{
														OFFSET -4.409401 0.000000 0.000000
														CHANNELS 3 Xrotation Yrotation Zrotation
														End Site
														{
															OFFSET 0.000000 0.000000 0.000000
														}
													}
												}
											}
										}
										JOINT RightHandMiddle1
										{
											OFFSET -23.810097 0.000000 0.000000
											CHANNELS 3 Xrotation Yrotation Zrotation
											JOINT RightHandMiddle2
											{
												OFFSET -7.176498 0.000000 0.000000
												CHANNELS 3 Xrotation Yrotation Zrotation
												JOINT RightHandMiddle3
												{
													OFFSET -6.774902 0.000000 0.000000
													CHANNELS 3 Xrotation Yrotation Zrotation
													JOINT RightHandMiddle4
													{
														OFFSET -5.403328 0.000000 0.000000
														CHANNELS 3 Xrotation Yrotation Zrotation
														End Site
														{
															OFFSET 0.000000 0.000000 0.000000
														}
													}
												}
											}
										}
										JOINT RightHandRing1
										{
											OFFSET -22.908302 -0.839325 -6.020576
											CHANNELS 3 Xrotation Yrotation Zrotation
											JOINT RightHandRing2
											{
												OFFSET -6.337502 0.000000 0.000000
												CHANNELS 3 Xrotation Yrotation Zrotation
												JOINT RightHandRing3
												{
													OFFSET -5.779297 0.000000 0.000000
													CHANNELS 3 Xrotation Yrotation Zrotation
													JOINT RightHandRing4
													{
														OFFSET -4.965698 0.000000 0.000000
														CHANNELS 3 Xrotation Yrotation Zrotation
														End Site
														{
															OFFSET 0.000000 0.000000 0.000000
														}
													}
												}
											}
										}
										JOINT RightHandPinky1
										{
											OFFSET -20.037003 -1.530334 -10.950259
											CHANNELS 3 Xrotation Yrotation Zrotation
											JOINT RightHandPinky2
											{
												OFFSET -5.254700 0.000000 0.000000
												CHANNELS 3 Xrotation Yrotation Zrotation
												JOINT RightHandPinky3
												{
													OFFSET -4.810204 0.000000 0.000000
													CHANNELS 3 Xrotation Yrotation Zrotation
													JOINT RightHandPinky4
													{
														OFFSET -3.647202 0.000000 0.000000
														CHANNELS 3 Xrotation Yrotation Zrotation
														End Site
														{
															OFFSET 0.000000 0.000000 0.000000
														}
													}
												}
											}
										}
									}
								}
							}
						}
					}
				}
			}
		}
	}
	JOINT LeftUpLeg
	{
		OFFSET 15.427100 -6.655098 0.678600
		CHANNELS 3 Xrotation Yrotation Zrotation
		JOINT LeftLeg
		{
			OFFSET 4.081073 -39.591068 13.024000
			CHANNELS 3 Xrotation Yrotation Zrotation
			JOINT LeftFoot
			{
				OFFSET -4.081074 -37.707932 -15.979700
				CHANNELS 3 Xrotation Yrotation Zrotation
				JOINT LeftToeBase
				{
					OFFSET 5.346399 -15.068900 20.645000
					CHANNELS 3 Xrotation Yrotation Zrotation
					JOINT LeftToe_End
					{
						OFFSET 2.754700 0.931300 11.300900
						CHANNELS 3 Xrotation Yrotation Zrotation
						End Site
						{
							OFFSET 0.000000 0.000000 0.000000
						}
					}
				}
			}
		}
	}
	JOINT RightUpLeg
	{
		OFFSET -15.569500 -6.655098 0.678600
		CHANNELS 3 Xrotation Yrotation Zrotation
		JOINT RightLeg
		{
			OFFSET -4.081825 -39.591045 13.023800
			CHANNELS 3 Xrotation Yrotation Zrotation
			JOINT RightFoot
			{
				OFFSET 4.081824 -37.707954 -15.979600
				CHANNELS 3 Xrotation Yrotation Zrotation
				JOINT RightToeBase
				{
					OFFSET -5.346400 -15.068900 20.645000
					CHANNELS 3 Xrotation Yrotation Zrotation
					JOINT RightToe_End
					{
						OFFSET -2.754700 0.931300 11.300900
						CHANNELS 3 Xrotation Yrotation Zrotation
						End Site
						{
							OFFSET 0.000000 0.000000 0.000000
						}
					}
				}
			}
		}
	}
}
MOTION
Frames: 5
Frame Time: 0.016667
17.332684 47.217766 -48.676735 48.794694 -30.210121 15.989959 30.377676 9.386440 4.140570 6.860048 2.066864 1.129953 0.000000 0.000000 0.000000 6.835854 2.135324 1.146297 -7.949794 -4.235514 1.372948 -21.131454 -17.422404 -7.101419 0.000002 0.000000 -0.000002 5.673076 -23.734084 -9.066827 0.000000 0.000000 0.000000 -27.862339 -10.438785 -41.186457 -0.000023 -38.893450 -0.000005 -42.320279 -3.346963 4.206366 -1.538527 3.693640 6.118922 3.939058 7.948721 0.746821 -0.579475 1.574997 2.538712 0.000000 -0.000001 0.000000 0.298625 2.009587 -16.903110 0.539679 2.676808 -22.793526 0.036390 0.708412 -5.880833 -0.000001 -0.000003 -0.000001 0.298062 2.007739 -16.887103 0.540435 2.678581 -22.809543 0.036383 0.708424 -5.880827 -0.000004 -0.000001 0.000000 0.298625 2.009587 -16.903106 0.539681 2.676809 -22.793526 0.036390 0.708412 -5.880829 0.000001 0.000000 -0.000000 1.465412 5.893255 -16.473117 0.545009 -1.382174 -23.265264 0.036391 0.708416 -5.880827 -0.000001 -0.000000 0.000001 -0.454810 29.350986 14.140354 0.000000 0.000000 0.000000 -42.011930 48.862733 12.344920 0.000002 14.620228 -0.000017 -4.045419 -7.800922 -22.899230 -1.848192 -3.584405 -6.569216 4.637201 -8.634129 -0.225416 -1.273756 0.137311 -2.094862 -0.000000 0.000000 0.000004 0.480695 -2.544875 21.389412 1.003308 -3.603113 31.111303 0.099707 -1.175696 9.694889 0.000001 0.000000 -0.000001 0.480695 -2.544874 21.389412 1.003308 -3.603114 31.111303 0.099709 -1.175698 9.694885 0.000000 -0.000001 -0.000001 0.480695 -2.544874 21.389412 1.003307 -3.603118 31.111300 0.099707 -1.175695 9.694887 0.000001 -0.000000 -0.000001 0.480695 -2.544875 21.389412 1.003310 -3.603118 31.111300 0.099707 -1.175694 9.694887 0.000000 0.000000 -0.000002 -46.813235 -2.426200 0.776495 103.882663 -6.261673 -0.212944 -9.644724 -7.621864 -3.763510 21.481860 -36.106156 -64.387995 0.000002 -0.000004 -0.000001 -107.144221 -6.853151 -23.412012 104.472190 -11.097369 5.914090 -23.258234 -8.846949 6.483194 -10.407076 -0.000016 -0.000004 -0.000000 -0.000001 -0.000000 
17.432552 47.449921 -48.302868 48.413815 -30.884029 16.039801 30.434524 9.445645 3.768784 6.860462 2.055445 1.057265 0.000000 0.000000 0.000000 6.836469 2.123752 1.073448 -7.756132 -4.044933 1.169388 -20.994371 -16.671633 -7.271154 0.000001 0.000000 -0.000003 5.677184 -23.780707 -9.018298 0.000000 0.000000 0.000000 -27.386362 -9.567777 -41.312351 -0.000020 -39.455189 -0.000019 -42.046952 -3.027399 4.146441 -1.537382 3.696275 6.101090 3.939062 7.948704 0.746787 -0.579467 1.575011 2.538735 -0.000002 -0.000000 -0.000000 0.298630 2.009581 -16.903110 0.539679 2.676797 -22.793542 0.036389 0.708413 -5.880839 -0.000001 -0.000001 0.000000 0.298067 2.007734 -16.887107 0.540428 2.678577 -22.809572 0.036388 0.708410 -5.880830 0.000001 0.000002 -0.000001 0.298630 2.009581 -16.903106 0.539679 2.676799 -22.793543 0.036391 0.708416 -5.880833 -0.000000 -0.000002 -0.000000 1.465417 5.893246 -16.473146 0.545010 -1.382178 -23.265301 0.036388 0.708401 -5.880839 -0.000003 0.000001 -0.000002 -0.367074 28.852365 13.849364 0.000000 0.000000 0.000000 -40.871596 48.371512 12.524501 0.000002 16.563849 -0.000000 -4.109967 -7.929990 -21.633369 -1.847386 -3.586396 -6.556331 4.637200 -8.634120 -0.225397 -1.273760 0.137309 -2.094874 0.000000 -0.000000 -0.000000 0.480691 -2.544874 21.389415 1.003311 -3.603111 31.111307 0.099709 -1.175693 9.694898 -0.000001 -0.000000 -0.000000 0.480692 -2.544873 21.389412 1.003310 -3.603113 31.111303 0.099711 -1.175693 9.694903 0.000002 0.000000 -0.000001 0.480690 -2.544873 21.389419 1.003313 -3.603117 31.111303 0.099713 -1.175693 9.694898 -0.000001 -0.000000 -0.000002 0.480691 -2.544874 21.389412 1.003311 -3.603117 31.111314 0.099710 -1.175692 9.694895 -0.000001 0.000000 -0.000001 -48.683734 -3.083779 1.627846 104.959647 -6.077942 -0.611690 -8.513611 -6.996633 -3.971415 21.108281 -38.458108 -64.876900 0.000001 -0.000002 0.000001 -105.931098 -6.751115 -23.170177 103.980730 -10.700224 5.969691 -23.305043 -8.955342 6.861602 -10.227530 0.000014 0.000005 0.000000 -0.000000 -0.000000 
17.541872 47.708702 -47.842289 47.985419 -31.564466 16.101899 30.556576 9.530649 3.345717 6.900531 2.048716 0.955044 0.000000 0.000000 0.000000 6.876920 2.117283 0.970882 -7.571712 -3.834393 0.935134 -20.880416 -15.870593 -7.421778 -0.000002 0.000002 -0.000004 5.697510 -23.899189 -8.949576 0.000000 0.000000 0.000000 -27.065924 -8.692581 -41.259844 0.000010 -40.071607 0.000008 -41.576492 -2.697398 3.764263 -1.540039 3.690183 6.142365 3.939052 7.948714 0.746817 -0.579470 1.575006 2.538704 -0.000001 0.000001 -0.000003 0.298628 2.009579 -16.903094 0.539682 2.676805 -22.793555 0.036388 0.708408 -5.880818 -0.000002 -0.000001 0.000000 0.298070 2.007741 -16.887093 0.540427 2.678586 -22.809560 0.036391 0.708411 -5.880813 -0.000001 0.000000 -0.000001 0.298628 2.009579 -16.903096 0.539682 2.676807 -22.793559 0.036391 0.708411 -5.880819 0.000001 0.000002 -0.000001 1.465419 5.893256 -16.473129 0.545008 -1.382174 -23.265301 0.036385 0.708408 -5.880829 -0.000000 0.000002 0.000001 -0.244505 28.311472 13.397244 0.000000 0.000000 0.000000 -39.815898 48.075263 12.700969 -0.000008 18.268893 0.000010 -4.377007 -7.996916 -20.176859 -1.846498 -3.588584 -6.542159 4.637205 -8.634119 -0.225404 -1.273759 0.137313 -2.094869 -0.000000 0.000000 0.000000 0.480688 -2.544871 21.389420 1.003313 -3.603116 31.111279 0.099708 -1.175697 9.694914 -0.000000 0.000000 0.000000 0.480688 -2.544870 21.389419 1.003312 -3.603119 31.111276 0.099710 -1.175697 9.694916 -0.000001 0.000000 -0.000001 0.480688 -2.544873 21.389415 1.003309 -3.603120 31.111283 0.099709 -1.175697 9.694913 0.000002 0.000000 0.000001 0.480688 -2.544871 21.389417 1.003313 -3.603124 31.111279 0.099711 -1.175696 9.694913 -0.000001 0.000001 0.000001 -50.702168 -3.449741 2.139368 106.002460 -5.984725 -0.581000 -7.184061 -6.056606 -4.506459 34.468748 -42.969871 -46.864332 -0.000003 -0.000003 -0.000001 -104.545929 -6.536247 -23.002868 103.449915 -10.202966 6.057682 -23.402171 -9.075602 7.306837 -10.060355 -0.000031 -0.000009 0.000000 0.000001 0.000000 
17.648560 48.020172 -47.299545 47.469743 -32.262795 16.192854 30.777030 9.621428 2.839964 6.923776 2.044798 0.861494 0.000000 0.000000 0.000000 6.900696 2.113032 0.877182 -7.371917 -3.600001 0.660443 -20.823135 -15.011132 -7.545700 -0.000002 0.000002 -0.000000 5.758436 -24.143190 -8.911105 0.000000 0.000000 0.000000 -26.806428 -7.789662 -40.855569 -0.000023 -40.789746 -0.000019 -40.997439 -2.407531 3.305834 -1.540039 3.690194 6.142362 3.939046 7.948709 0.746815 -0.579458 1.574999 2.538707 0.000000 -0.000001 -0.000002 0.298633 2.009595 -16.903086 0.539665 2.676791 -22.793548 0.036395 0.708425 -5.880821 0.000001 -0.000001 -0.000001 0.298064 2.007756 -16.887067 0.540423 2.678565 -22.809576 0.036389 0.708428 -5.880821 -0.000001 0.000000 -0.000002 0.298633 2.009595 -16.903084 0.539665 2.676793 -22.793545 0.036397 0.708426 -5.880816 0.000003 0.000000 -0.000000 1.465415 5.893269 -16.473101 0.545005 -1.382182 -23.265296 0.036392 0.708425 -5.880817 0.000001 0.000002 -0.000000 -0.090562 27.840276 12.771122 0.000000 0.000000 0.000000 -38.951613 47.768755 12.863091 -0.000003 19.980757 0.000014 -4.789535 -8.173858 -18.486441 -1.849248 -3.581791 -6.586134 4.637201 -8.634125 -0.225387 -1.273758 0.137311 -2.094887 -0.000000 -0.000001 -0.000002 0.480690 -2.544872 21.389412 1.003305 -3.603111 31.111314 0.099709 -1.175701 9.694873 -0.000001 -0.000001 -0.000001 0.480691 -2.544871 21.389408 1.003309 -3.603112 31.111310 0.099705 -1.175698 9.694878 -0.000001 -0.000001 -0.000002 0.480689 -2.544873 21.389410 1.003310 -3.603114 31.111310 0.099711 -1.175701 9.694876 0.000000 -0.000000 0.000002 0.480690 -2.544872 21.389408 1.003307 -3.603117 31.111314 0.099708 -1.175700 9.694873 0.000001 0.000000 0.000000 -52.649967 -3.728547 2.443492 106.943250 -5.962736 -0.356716 -5.955191 -5.425106 -5.248298 -65.136522 -42.283618 30.755611 0.000000 0.000000 0.000000 -102.967130 -6.230380 -22.822044 102.856522 -9.655509 6.133235 -23.571857 -9.264300 7.761349 -9.820718 -0.000002 0.000007 0.000000 -0.000000 -0.000001 
17.754051 48.386436 -46.658646 46.916091 -32.976051 16.308574 31.050146 9.716388 2.263881 6.973901 2.045120 0.742951 0.000000 0.000000 0.000000 6.951632 2.112848 0.758488 -7.147398 -3.347712 0.366292 -20.800948 -14.109168 -7.588874 -0.000000 -0.000002 0.000004 5.880279 -24.606310 -8.861677 0.000000 0.000000 0.000000 -26.458078 -6.906707 -40.061576 -0.000028 -41.627435 -0.000012 -40.522027 -2.265963 3.133721 -1.540026 3.690186 6.142348 3.939052 7.948721 0.746840 -0.579470 1.574985 2.538689 -0.000002 0.000001 0.000001 0.298629 2.009589 -16.903099 0.539667 2.676796 -22.793545 0.036393 0.708419 -5.880814 0.000002 0.000002 -0.000001 0.298068 2.007744 -16.887096 0.540428 2.678584 -22.809564 0.036402 0.708416 -5.880822 -0.000000 0.000003 0.000002 0.298629 2.009589 -16.903098 0.539668 2.676796 -22.793542 0.036394 0.708418 -5.880815 0.000003 -0.000000 -0.000000 1.465426 5.893254 -16.473129 0.545010 -1.382181 -23.265303 0.036395 0.708422 -5.880818 -0.000001 -0.000001 -0.000000 0.069421 27.515625 12.075449 0.000000 0.000000 0.000000 -38.169129 47.324564 12.915020 -0.000004 21.820984 0.000019 -5.238186 -8.489162 -16.557415 -1.849244 -3.581793 -6.586155 4.637208 -8.634131 -0.225415 -1.273757 0.137313 -2.094867 -0.000000 -0.000000 0.000001 0.480696 -2.544868 21.389422 1.003305 -3.603115 31.111303 0.099716 -1.175696 9.694904 0.000001 -0.000001 -0.000001 0.480697 -2.544867 21.389420 1.003304 -3.603117 31.111300 0.099715 -1.175697 9.694901 0.000001 0.000000 -0.000002 0.480692 -2.544865 21.389434 1.003305 -3.603125 31.111276 0.099715 -1.175696 9.694903 0.000000 0.000000 -0.000000 0.480696 -2.544868 21.389420 1.003307 -3.603122 31.111303 0.099713 -1.175695 9.694905 0.000003 0.000000 0.000002 -54.623615 -3.667262 2.290281 107.937568 -5.853105 0.365701 -5.009006 -4.745963 -6.100872 -83.855223 -29.359319 9.329979 -0.000001 0.000000 -0.000000 -101.205952 -5.827128 -22.611285 102.165901 -8.983944 6.217804 -23.788533 -9.600075 8.229435 -9.529912 0.000049 -0.000008 -0.000000 -0.000001 0.000001 
